<svg width="220" height="220" viewBox="0 0 220 220" fill="none" xmlns="http://www.w3.org/2000/svg">
  <rect width="220" height="220" rx="46" fill="#172026"/>
  <path d="M42 136C60 89 91 62 127 58C151 55 172 63 188 79C161 73 136 79 115 98C93 118 74 134 42 136Z" fill="#D9A441"/>
  <path d="M38 154C68 154 93 142 118 120C140 101 163 92 192 98" stroke="#F3D18A" stroke-width="13" stroke-linecap="round"/>
  <path d="M54 119C61 84 88 57 122 51C137 48 153 50 168 56" stroke="#FFF3D1" stroke-width="8" stroke-linecap="round"/>
  <path d="M72 156C90 174 128 178 163 159" stroke="#0F6B4F" stroke-width="12" stroke-linecap="round"/>
  <path d="M68 138L103 87L147 138H68Z" fill="#25313A" stroke="#F3D18A" stroke-width="5"/>
  <path d="M92 128L112 99L133 128H92Z" fill="#D9A441"/>
  <text x="110" y="199" text-anchor="middle" font-family="Arial, sans-serif" font-size="25" font-weight="900" letter-spacing="5" fill="#FFF3D1">MINGOLD</text>
</svg>
