<svg width="760" height="620" viewBox="0 0 760 620" fill="none" xmlns="http://www.w3.org/2000/svg">
  <rect width="760" height="620" rx="34" fill="#10171C"/>
  <path d="M380 84L596 164V288C596 415 510 513 380 558C250 513 164 415 164 288V164L380 84Z" fill="#25313A" stroke="#D9A441" stroke-width="12"/>
  <path d="M380 136L528 191V291C528 386 470 464 380 504C290 464 232 386 232 291V191L380 136Z" fill="#172026"/>
  <path d="M294 317L354 377L476 242" stroke="#F3D18A" stroke-width="28" stroke-linecap="round" stroke-linejoin="round"/>
  <path d="M271 196C285 162 326 139 380 139C434 139 475 162 489 196" stroke="#D9A441" stroke-width="16" stroke-linecap="round"/>
  <rect x="287" y="190" width="186" height="48" rx="18" fill="#D9A441"/>
  <path d="M319 238H441" stroke="#F3D18A" stroke-width="12" stroke-linecap="round"/>
  <g fill="#0F6B4F">
    <circle cx="125" cy="112" r="15"/>
    <circle cx="635" cy="128" r="15"/>
    <circle cx="94" cy="444" r="15"/>
    <circle cx="654" cy="455" r="15"/>
  </g>
  <g stroke="#0F6B4F" stroke-width="8" stroke-linecap="round">
    <path d="M138 122L218 177"/>
    <path d="M622 137L542 184"/>
    <path d="M111 433L200 375"/>
    <path d="M639 443L556 383"/>
  </g>
  <text x="380" y="56" text-anchor="middle" font-family="Arial" font-size="30" font-weight="900" fill="#FFF3D1">HSEQ: vida primero</text>
  <text x="380" y="586" text-anchor="middle" font-family="Arial" font-size="22" font-weight="800" fill="#FFF3D1">Atmósferas, roca, explosivos, equipos y cianuro bajo control</text>
</svg>
